<?xml version="1.0" encoding="UTF-8" standalone="no"?>
<!-- Created with Inkscape (http://www.inkscape.org/) -->

<svg
   version="1.1"
   id="svg9"
   width="110.4"
   height="42.720001"
   viewBox="0 0 110.4 42.720001"
   sodipodi:docname="LOGOVICTOR3.svg"
   inkscape:version="1.1 (c68e22c387, 2021-05-23)"
   xmlns:inkscape="http://www.inkscape.org/namespaces/inkscape"
   xmlns:sodipodi="http://sodipodi.sourceforge.net/DTD/sodipodi-0.dtd"
   xmlns="http://www.w3.org/2000/svg"
   xmlns:svg="http://www.w3.org/2000/svg">
  <defs
     id="defs13">
    <filter
       inkscape:collect="always"
       style="color-interpolation-filters:sRGB"
       id="filter5484"
       x="-0.029254286"
       y="-0.85464306"
       width="1.0585086"
       height="2.7092861">
      <feGaussianBlur
         inkscape:collect="always"
         stdDeviation="0.62317724"
         id="feGaussianBlur5486" />
    </filter>
    <filter
       inkscape:collect="always"
       style="color-interpolation-filters:sRGB"
       id="filter6360"
       x="-0.044478812"
       y="-0.94093996"
       width="1.0889576"
       height="2.8818799">
      <feGaussianBlur
         inkscape:collect="always"
         stdDeviation="0.78538917"
         id="feGaussianBlur6362" />
    </filter>
  </defs>
  <sodipodi:namedview
     id="namedview11"
     pagecolor="#ffffff"
     bordercolor="#666666"
     borderopacity="1.0"
     inkscape:pageshadow="2"
     inkscape:pageopacity="0.0"
     inkscape:pagecheckerboard="0"
     showgrid="false"
     inkscape:zoom="5.6568543"
     inkscape:cx="77.693358"
     inkscape:cy="-11.75565"
     inkscape:window-width="1440"
     inkscape:window-height="877"
     inkscape:window-x="-8"
     inkscape:window-y="-8"
     inkscape:window-maximized="1"
     inkscape:current-layer="g15"
     inkscape:snap-global="true"
     showguides="true"
     inkscape:guide-bbox="true">
    <sodipodi:guide
       position="0,35.220001"
       orientation="1,0"
       id="guide23088" />
  </sodipodi:namedview>
  <g
     inkscape:groupmode="layer"
     inkscape:label="Image"
     id="g15">
    <text
       xml:space="preserve"
       style="font-style:normal;font-weight:normal;font-size:40px;line-height:1.25;font-family:sans-serif;fill:#fa6862;fill-opacity:1;stroke:#1e2530;stroke-width:0.8;stroke-linejoin:round;stroke-miterlimit:4;stroke-dasharray:none;stroke-opacity:1"
       x="50.79969"
       y="31.809898"
       id="text22667"><tspan
         sodipodi:role="line"
         id="tspan22665"
         x="50.79969"
         y="31.809898"
         style="font-style:normal;font-variant:normal;font-weight:normal;font-stretch:normal;font-family:'Times New Roman';-inkscape-font-specification:'Times New Roman, ';fill:#fa6862;fill-opacity:1;stroke:#1e2530;stroke-width:0.8;stroke-linejoin:round;stroke-miterlimit:4;stroke-dasharray:none;stroke-opacity:1">vks</tspan></text>
    <ellipse
       style="fill:#1e2530;fill-opacity:1;stroke:none;stroke-width:0.8;stroke-linecap:round;stroke-linejoin:round;stroke-miterlimit:4;stroke-dasharray:none;stroke-opacity:0.81176472;opacity:1;filter:url(#filter5484)"
       id="path29828"
       cx="80.3125"
       cy="38.375"
       rx="25.5625"
       ry="0.875" />
    <path
       style="fill:none;stroke:#1e2530;stroke-width:0.328809;stroke-linecap:butt;stroke-linejoin:miter;stroke-miterlimit:4;stroke-dasharray:none;stroke-opacity:1"
       d="m 24.447261,12.825135 0.14169,17.440056"
       id="path1501"
       sodipodi:nodetypes="cc" />
    <path
       style="fill:none;stroke:#1e2530;stroke-width:0.197285;stroke-linecap:square;stroke-linejoin:round;stroke-miterlimit:4;stroke-dasharray:none;stroke-opacity:1;paint-order:fill markers stroke"
       d="m 8.430011,9.4751246 c 0,0 -1.1698497,0.267137 -1.2039097,0.6804714 -0.10536,1.278576 -1.62266,16.64537 -1.62266,16.64537 0,0 0.35395,-0.247091 0.68047,-0.366408 0.42609,-0.155698 1.12915,-0.365441 1.57032,-0.471095 0.9018697,-0.215986 1.8468797,-0.202235 2.7742297,-0.209376 0.87394,-0.0068 1.75013,0.04739 2.6172,0.157031 1.18141,0.149397 2.35711,0.371119 3.50704,0.680472 0.87387,0.235088 1.74001,0.5176 2.56485,0.889847 1.13227,0.510994 3.24532,1.832038 3.24532,1.832038 l 1.24136,1.000917 -3.80305,-1.239927 -3.7568,-0.8698 -2.55388,-0.444154 -2.23928,-0.222075 -2.88699,-0.05551 -2.6093997,0.333114 -1.48051,0.407141 c 0,0 1.19003,-14.162395 1.55454,-16.859309 0.0307,-0.227177 0.62922,-0.277595 0.62922,-0.277595 l 0.46266,-0.01851"
       id="path1741"
       sodipodi:nodetypes="cscsssssscccccccccscc" />
    <path
       style="fill:none;stroke:#1e2530;stroke-width:0.197285;stroke-linecap:round;stroke-linejoin:round;stroke-miterlimit:4;stroke-dasharray:none;stroke-opacity:1"
       d="m 23.804231,30.314392 c 0,0 -3.08901,0.447201 -4.64371,0.5694 -1.49682,0.117651 -3.00053,0.122956 -4.50158,0.157032 -1.65722,0.03762 -3.31593,-0.0024 -4.97267,0.05235 -0.94313,0.03115 -1.8849897,0.09467 -2.8265697,0.157032 -0.68099,0.04511 -1.36125,0.100866 -2.04142,0.157032 -0.59352,0.04902 -1.7796997,0.157031 -1.7796997,0.157031 l 1.2039197,-16.278963 0.36641,-0.314064"
       id="path5305"
       sodipodi:nodetypes="csssssccc" />
    <path
       style="fill:none;stroke:#1e2530;stroke-width:0.197285;stroke-linecap:round;stroke-linejoin:round;stroke-miterlimit:4;stroke-dasharray:none;stroke-opacity:1"
       d="m 25.411631,30.294222 c 0,0 1.88788,-1.131997 2.82488,-1.571379 0.84425,-0.395891 1.702,-0.773128 2.59089,-1.054863 1.04416,-0.330948 2.12261,-0.551669 3.2016,-0.740255 0.82007,-0.143329 1.64825,-0.257896 2.47986,-0.296102 1.36853,-0.06288 2.74304,-0.0011 4.10841,0.111039 1.03643,0.08512 3.09057,0.425646 3.09057,0.425646 l -1.57304,-16.766775 c -0.64011,-0.285578 -1.13215,-0.126991 -1.68408,-0.148051"
       id="path8923"
       sodipodi:nodetypes="csssssccc" />
    <path
       style="fill:none;stroke:#1e2530;stroke-width:0.197285;stroke-linecap:round;stroke-linejoin:round;stroke-miterlimit:4;stroke-dasharray:none;stroke-opacity:1"
       d="m 43.313581,12.229822 0.28996,0.386608 c 0.28676,-0.154698 0.28177,0.274097 0.32217,0.612131 0.28468,-0.161284 0.31475,0.18667 0.25774,0.708782 0.35873,-0.09026 0.14075,0.396195 0.1933,0.612131 l 1.86861,16.785256 c -6.47726,-0.461124 -12.67848,-0.384612 -19.39487,-0.225522"
       id="path11058"
       sodipodi:nodetypes="ccccccc" />
    <path
       style="fill:none;stroke:#1e2530;stroke-width:0.197285;stroke-linecap:round;stroke-linejoin:round;stroke-miterlimit:4;stroke-dasharray:none;stroke-opacity:1"
       d="m 44.376751,14.549474 c 0.54289,-0.162449 0.74186,-0.03831 0.96652,0.06443 l 1.93304,18.235038 c 0,0 -16.53585,-1.350978 -19.94256,-1.030955 -0.22325,0.02097 -0.0691,0.457602 -0.1933,0.644347 -0.13093,0.196958 -0.34827,0.323913 -0.54769,0.451043 -0.23088,0.147176 -0.47909,0.274603 -0.74101,0.354392 -0.42567,0.129678 -0.87598,0.20099 -1.32091,0.193304 -0.36014,-0.0063 -0.72446,-0.07075 -1.06317,-0.193304 -0.2668,-0.09653 -0.52278,-0.237504 -0.741,-0.418827 -0.26969,-0.224077 -0.55656,-0.475982 -0.67657,-0.805433 -0.0367,-0.100905 0,-0.322175 0,-0.322175 l -9.11752,-0.06443 -1.70751,0.12887 -2.25522,0.257739 -4.1238297,0.547695 -2.8351294,0.483261 1.5464297,-18.58943 1.0628197,-0.0149"
       id="path11653"
       sodipodi:nodetypes="cccsssssssscccccccc" />
    <path
       style="fill:none;stroke:#1e2530;stroke-width:0.197285;stroke-linecap:round;stroke-linejoin:round;stroke-miterlimit:4;stroke-dasharray:none;stroke-opacity:1"
       d="m 37.148491,19.600265 1.51127,1.365955"
       id="path12248" />
    <path
       style="fill:none;stroke:#1e2530;stroke-width:0.197285;stroke-linecap:round;stroke-linejoin:round;stroke-miterlimit:4;stroke-dasharray:none;stroke-opacity:1"
       d="m 35.055961,18.554001 c 1.20201,1.440109 2.52801,2.725215 4.03974,3.778176"
       id="path12406"
       sodipodi:nodetypes="cc" />
    <path
       style="fill:none;stroke:#1e2530;stroke-width:0.197285;stroke-linecap:round;stroke-linejoin:round;stroke-miterlimit:4;stroke-dasharray:none;stroke-opacity:1"
       d="m 34.620021,19.571202 2.3541,1.889087"
       id="path12602"
       sodipodi:nodetypes="cc" />
    <path
       style="fill:none;stroke:#1e2530;stroke-width:0.197285;stroke-linecap:round;stroke-linejoin:round;stroke-miterlimit:4;stroke-dasharray:none;stroke-opacity:1"
       d="m 37.061301,22.680932 -2.49941,-2.063467"
       id="path12760" />
    <path
       style="fill:none;stroke:#1e2530;stroke-width:0.197285;stroke-linecap:round;stroke-linejoin:round;stroke-miterlimit:4;stroke-dasharray:none;stroke-opacity:1"
       d="m 32.847181,20.123396 3.51661,2.964416"
       id="path12828" />
    <path
       style="fill:none;stroke:#1e2530;stroke-width:0.197285;stroke-linecap:round;stroke-linejoin:round;stroke-miterlimit:4;stroke-dasharray:none;stroke-opacity:1"
       d="m 32.672811,21.140597 1.01719,0.842825"
       id="path12896" />
    <path
       style="fill:none;stroke:#1e2530;stroke-width:0.197285;stroke-linecap:round;stroke-linejoin:round;stroke-miterlimit:4;stroke-dasharray:none;stroke-opacity:1"
       d="m 8.172791,19.542139 4.44662,2.790038"
       id="path12964" />
    <path
       style="fill:none;stroke:#1e2530;stroke-width:0.197285;stroke-linecap:round;stroke-linejoin:round;stroke-miterlimit:4;stroke-dasharray:none;stroke-opacity:1"
       d="m 9.858441,19.949019 1.10438,0.639384"
       id="path13089" />
    <path
       style="fill:none;stroke:#1e2530;stroke-width:0.197285;stroke-linecap:round;stroke-linejoin:round;stroke-miterlimit:4;stroke-dasharray:none;stroke-opacity:1"
       d="m 8.899361,20.937158 c 0.51823,0.334393 1.0908,0.505758 1.54033,1.046264"
       id="path13157"
       sodipodi:nodetypes="cc" />
    <path
       style="fill:none;stroke:#1e2530;stroke-width:0.197285;stroke-linecap:round;stroke-linejoin:round;stroke-miterlimit:4;stroke-dasharray:none;stroke-opacity:1"
       d="m 8.783111,21.518416 2.70284,1.598459"
       id="path13315" />
    <path
       style="fill:none;stroke:#1e2530;stroke-width:0.197285;stroke-linecap:round;stroke-linejoin:round;stroke-miterlimit:4;stroke-dasharray:none;stroke-opacity:1"
       d="m 9.189991,22.390302 0.61032,0.348755"
       id="path13483" />
    <path
       style="fill:none;stroke:#1e2530;stroke-width:0.197285;stroke-linecap:round;stroke-linejoin:round;stroke-miterlimit:4;stroke-dasharray:none;stroke-opacity:1"
       d="m 8.730261,24.506527 0.49321,0.36991"
       id="path13802" />
    <path
       style="fill:none;stroke:#1e2530;stroke-width:0.197285;stroke-linecap:round;stroke-linejoin:round;stroke-miterlimit:4;stroke-dasharray:none;stroke-opacity:1"
       d="m 9.439251,24.403774 0.98642,0.595967"
       id="path14059" />
    <path
       style="fill:none;stroke:#1e2530;stroke-width:0.197285;stroke-linecap:round;stroke-linejoin:round;stroke-miterlimit:4;stroke-dasharray:none;stroke-opacity:1"
       d="m 10.199621,24.25992 0.33909,0.32881"
       id="path14127" />
    <path
       style="fill:none;stroke:#1e2530;stroke-width:0.197285;stroke-linecap:round;stroke-linejoin:round;stroke-miterlimit:4;stroke-dasharray:none;stroke-opacity:1"
       d="m 10.764761,24.229094 1.30496,0.811748"
       id="path14195" />
    <path
       style="fill:none;stroke:#1e2530;stroke-width:0.197285;stroke-linecap:round;stroke-linejoin:round;stroke-miterlimit:4;stroke-dasharray:none;stroke-opacity:1"
       d="m 11.638161,24.249645 0.64734,0.472663"
       id="path14263" />
    <path
       style="fill:none;stroke:#1e2530;stroke-width:0.197285;stroke-linecap:round;stroke-linejoin:round;stroke-miterlimit:4;stroke-dasharray:none;stroke-opacity:1"
       d="m 12.470461,24.270195 0.93505,0.616517"
       id="path14331" />
    <path
       style="fill:none;stroke:#1e2530;stroke-width:0.197285;stroke-linecap:round;stroke-linejoin:miter;stroke-miterlimit:4;stroke-dasharray:none;stroke-opacity:1"
       d="m 13.405511,24.270195 1.19193,0.8734"
       id="path14399" />
    <path
       style="fill:none;stroke:#1e2530;stroke-width:0.197285;stroke-linecap:round;stroke-linejoin:round;stroke-miterlimit:4;stroke-dasharray:none;stroke-opacity:1"
       d="m 14.556341,24.444876 0.81175,0.637067"
       id="path14434" />
    <path
       style="fill:none;stroke:#1e2530;stroke-width:0.197285;stroke-linecap:round;stroke-linejoin:round;stroke-miterlimit:4;stroke-dasharray:none;stroke-opacity:1"
       d="m 14.844051,26.232775 0.88367,0.606241"
       id="path14502" />
    <path
       style="fill:none;stroke:#1e2530;stroke-width:0.197285;stroke-linecap:round;stroke-linejoin:round;stroke-miterlimit:4;stroke-dasharray:none;stroke-opacity:1"
       d="m 13.578481,25.965037 0.97361,0.726573"
       id="path14570" />
    <path
       style="fill:none;stroke:#1e2530;stroke-width:0.197285;stroke-linecap:round;stroke-linejoin:round;stroke-miterlimit:4;stroke-dasharray:none;stroke-opacity:1"
       d="m 12.430501,25.877849 1.70018,1.118921"
       id="path14795" />
    <path
       style="fill:none;stroke:#1e2530;stroke-width:0.197285;stroke-linecap:round;stroke-linejoin:round;stroke-miterlimit:4;stroke-dasharray:none;stroke-opacity:1"
       d="m 11.529551,25.863318 0.95907,0.741103"
       id="path14863" />
    <path
       style="fill:none;stroke:#1e2530;stroke-width:0.197285;stroke-linecap:round;stroke-linejoin:round;stroke-miterlimit:4;stroke-dasharray:none;stroke-opacity:1"
       d="m 10.468761,25.776128 1.61298,1.104391"
       id="path14931" />
    <path
       style="fill:none;stroke:#1e2530;stroke-width:0.197285;stroke-linecap:round;stroke-linejoin:miter;stroke-miterlimit:4;stroke-dasharray:none;stroke-opacity:1"
       d="m 9.742181,25.79066 0.75564,0.508601"
       id="path14999" />
    <path
       style="fill:none;stroke:#1e2530;stroke-width:0.197285;stroke-linecap:round;stroke-linejoin:miter;stroke-miterlimit:4;stroke-dasharray:none;stroke-opacity:1"
       d="m 8.899361,25.892381 1.00267,0.726571"
       id="path15034" />
    <path
       style="fill:none;stroke:#1e2530;stroke-width:0.197285;stroke-linecap:round;stroke-linejoin:round;stroke-miterlimit:4;stroke-dasharray:none;stroke-opacity:1"
       d="m 8.303571,25.950506 0.46501,0.377818"
       id="path15069" />
    <path
       style="fill:none;stroke:#1e2530;stroke-width:0.197285;stroke-linecap:round;stroke-linejoin:round;stroke-miterlimit:4;stroke-dasharray:none;stroke-opacity:1"
       d="M 7.6496513,27.592559 8.289041,28.202881"
       id="path15137" />
    <path
       style="fill:none;stroke:#1e2530;stroke-width:0.197285;stroke-linecap:round;stroke-linejoin:round;stroke-miterlimit:4;stroke-dasharray:none;stroke-opacity:1"
       d="m 8.372591,27.519902 0.97418,0.767929"
       id="path15262" />
    <path
       style="fill:none;stroke:#1e2530;stroke-width:0.197285;stroke-linecap:round;stroke-linejoin:round;stroke-miterlimit:4;stroke-dasharray:none;stroke-opacity:1"
       d="m 9.182371,27.517185 1.50019,1.181657"
       id="path15330" />
    <path
       style="fill:none;stroke:#1e2530;stroke-width:0.197285;stroke-linecap:round;stroke-linejoin:round;stroke-miterlimit:4;stroke-dasharray:none;stroke-opacity:1"
       d="m 9.994111,27.548011 1.02753,0.719269"
       id="path15398" />
    <path
       style="fill:none;stroke:#1e2530;stroke-width:0.197285;stroke-linecap:round;stroke-linejoin:round;stroke-miterlimit:4;stroke-dasharray:none;stroke-opacity:1"
       d="m 10.775041,27.558286 0.99671,0.698719"
       id="path15466" />
    <path
       style="fill:none;stroke:#1e2530;stroke-width:0.197285;stroke-linecap:round;stroke-linejoin:round;stroke-miterlimit:4;stroke-dasharray:none;stroke-opacity:1"
       d="m 11.956701,27.609663 1.35633,0.945325"
       id="path15534" />
    <path
       style="fill:none;stroke:#1e2530;stroke-width:0.197285;stroke-linecap:round;stroke-linejoin:round;stroke-miterlimit:4;stroke-dasharray:none;stroke-opacity:1"
       d="m 6.2546313,29.336332 0.66845,0.435944"
       id="path15602" />
    <path
       style="fill:none;stroke:#1e2530;stroke-width:0.197285;stroke-linecap:round;stroke-linejoin:round;stroke-miterlimit:4;stroke-dasharray:none;stroke-opacity:1"
       d="m 6.9448813,29.292738 0.65391,0.501335"
       id="path15670" />
    <path
       style="fill:none;stroke:#1e2530;stroke-width:0.197285;stroke-linecap:round;stroke-linejoin:round;stroke-miterlimit:4;stroke-dasharray:none;stroke-opacity:1"
       d="M 7.7513713,29.241878 9.015611,30.055639"
       id="path15738" />
    <path
       style="fill:none;stroke:#1e2530;stroke-width:0.197285;stroke-linecap:round;stroke-linejoin:round;stroke-miterlimit:4;stroke-dasharray:none;stroke-opacity:1"
       d="m 8.739511,29.132893 0.78471,0.566726"
       id="path15806" />
    <path
       style="fill:none;stroke:#1e2530;stroke-width:0.197285;stroke-linecap:round;stroke-linejoin:round;stroke-miterlimit:4;stroke-dasharray:none;stroke-opacity:1"
       d="m 29.940891,25.38378 1.10439,0.726572"
       id="path15874" />
    <path
       style="fill:none;stroke:#1e2530;stroke-width:0.197285;stroke-linecap:round;stroke-linejoin:round;stroke-miterlimit:4;stroke-dasharray:none;stroke-opacity:1"
       d="m 29.272451,25.747066 1.23516,0.900949"
       id="path15999" />
    <path
       style="fill:none;stroke:#1e2530;stroke-width:0.197285;stroke-linecap:round;stroke-linejoin:round;stroke-miterlimit:4;stroke-dasharray:none;stroke-opacity:1"
       d="m 28.676661,26.183009 0.9736,0.552195"
       id="path16067" />
    <path
       style="fill:none;stroke:#1e2530;stroke-width:0.197285;stroke-linecap:round;stroke-linejoin:round;stroke-miterlimit:4;stroke-dasharray:none;stroke-opacity:1"
       d="m 28.234351,26.445175 c 0.50103,0.334023 1.00207,0.668046 1.5031,1.00207"
       id="path16135"
       sodipodi:nodetypes="cc" />
    <path
       style="fill:none;stroke:#1e2530;stroke-width:0.197285;stroke-linecap:round;stroke-linejoin:round;stroke-miterlimit:4;stroke-dasharray:none;stroke-opacity:1"
       d="m 27.862901,26.836925 0.63938,0.421411"
       id="path16203" />
    <path
       style="fill:none;stroke:#1e2530;stroke-width:0.197285;stroke-linecap:round;stroke-linejoin:round;stroke-miterlimit:4;stroke-dasharray:none;stroke-opacity:1"
       d="m 27.310701,27.243805 1.36596,0.900949"
       id="path16271" />
    <path
       style="fill:none;stroke:#1e2530;stroke-width:0.197285;stroke-linecap:round;stroke-linejoin:round;stroke-miterlimit:4;stroke-dasharray:none;stroke-opacity:1"
       d="m 26.889291,27.548965 0.53767,0.435943"
       id="path16339" />
    <path
       style="fill:none;stroke:#1e2530;stroke-width:0.197285;stroke-linecap:round;stroke-linejoin:round;stroke-miterlimit:4;stroke-dasharray:none;stroke-opacity:1"
       d="m 34.285791,24.046887 1.74378,1.540333"
       id="path16407" />
    <path
       style="fill:none;stroke:#1e2530;stroke-width:0.197285;stroke-linecap:round;stroke-linejoin:round;stroke-miterlimit:4;stroke-dasharray:none;stroke-opacity:1"
       d="m 35.579091,24.410173 1.0608,1.00267"
       id="path16475" />
    <path
       style="fill:none;stroke:#1e2530;stroke-width:0.197285;stroke-linecap:round;stroke-linejoin:round;stroke-miterlimit:4;stroke-dasharray:none;stroke-opacity:1"
       d="m 35.782531,23.930635 1.03174,0.959076"
       id="path16543" />
    <path
       style="fill:none;stroke:#1e2530;stroke-width:0.197285;stroke-linecap:round;stroke-linejoin:round;stroke-miterlimit:4;stroke-dasharray:none;stroke-opacity:1"
       d="m 36.639891,23.916103 1.90362,1.787368"
       id="path16611" />
    <path
       style="fill:none;stroke:#1e2530;stroke-width:0.197285;stroke-linecap:round;stroke-linejoin:round;stroke-miterlimit:4;stroke-dasharray:none;stroke-opacity:1"
       d="m 38.340071,24.003293 1.46767,1.351424"
       id="path16679" />
    <path
       style="fill:none;stroke:#1e2530;stroke-width:0.197285;stroke-linecap:round;stroke-linejoin:round;stroke-miterlimit:4;stroke-dasharray:none;stroke-opacity:1"
       d="m 37.410061,23.857978 1.14798,1.147985"
       id="path16747" />
    <path
       style="fill:none;stroke:#1e2530;stroke-width:0.197285;stroke-linecap:round;stroke-linejoin:round;stroke-miterlimit:4;stroke-dasharray:none;stroke-opacity:1"
       d="m 39.735081,24.119544 0.62486,0.624852"
       id="path16815" />
    <path
       style="fill:none;stroke:#1e2530;stroke-width:0.197285;stroke-linecap:round;stroke-linejoin:round;stroke-miterlimit:4;stroke-dasharray:none;stroke-opacity:1"
       d="m 41.464331,22.76812 0.82829,0.726572"
       id="path16883" />
    <path
       style="fill:none;stroke:#1e2530;stroke-width:0.197285;stroke-linecap:round;stroke-linejoin:round;stroke-miterlimit:4;stroke-dasharray:none;stroke-opacity:1"
       d="m 41.449801,22.056079 1.62752,1.249704"
       id="path16951" />
    <path
       style="fill:none;stroke:#1e2530;stroke-width:0.197285;stroke-linecap:round;stroke-linejoin:round;stroke-miterlimit:4;stroke-dasharray:none;stroke-opacity:1"
       d="m 41.391671,21.169661 0.72657,0.523132"
       id="path17019" />
    <path
       style="fill:none;stroke:#1e2530;stroke-width:0.197285;stroke-linecap:round;stroke-linejoin:round;stroke-miterlimit:4;stroke-dasharray:none;stroke-opacity:1"
       d="m 41.289951,20.196054 1.20611,1.031733"
       id="path17087" />
    <path
       style="fill:none;stroke:#1e2530;stroke-width:0.197285;stroke-linecap:round;stroke-linejoin:round;stroke-miterlimit:4;stroke-dasharray:none;stroke-opacity:1"
       d="m 41.173701,19.45495 0.59579,0.435944"
       id="path17155" />
    <path
       style="fill:none;stroke:#1e2530;stroke-width:0.197285;stroke-linecap:round;stroke-linejoin:round;stroke-miterlimit:4;stroke-dasharray:none;stroke-opacity:1"
       d="m 41.115571,18.757441 0.49408,0.392349"
       id="path17223" />
    <path
       style="fill:none;stroke:#1e2530;stroke-width:0.197285;stroke-linecap:round;stroke-linejoin:round;stroke-miterlimit:4;stroke-dasharray:none;stroke-opacity:1"
       d="m 37.521601,26.664337 0.36991,0.287708"
       id="path17291" />
    <path
       style="fill:none;stroke:#1e2530;stroke-width:0.197285;stroke-linecap:round;stroke-linejoin:round;stroke-miterlimit:4;stroke-dasharray:none;stroke-opacity:1"
       d="m 36.694591,26.689874 0.49821,0.364924"
       id="path17359"
       sodipodi:nodetypes="cc" />
    <path
       style="fill:none;stroke:#1e2530;stroke-width:0.197285;stroke-linecap:round;stroke-linejoin:round;stroke-miterlimit:4;stroke-dasharray:none;stroke-opacity:1"
       d="m 36.083061,26.746539 1.00698,0.647343"
       id="path17427" />
    <path
       style="fill:none;stroke:#1e2530;stroke-width:0.197285;stroke-linecap:round;stroke-linejoin:round;stroke-miterlimit:4;stroke-dasharray:none;stroke-opacity:1"
       d="M 35.404891,26.808191 36.000851,27.137"
       id="path17495" />
    <path
       style="fill:none;stroke:#1e2530;stroke-width:0.197285;stroke-linecap:round;stroke-linejoin:round;stroke-miterlimit:4;stroke-dasharray:none;stroke-opacity:1"
       d="m 34.819201,26.880117 0.46239,0.328809"
       id="path17563" />
    <path
       style="fill:none;stroke:#1e2530;stroke-width:0.197285;stroke-linecap:round;stroke-linejoin:round;stroke-miterlimit:4;stroke-dasharray:none;stroke-opacity:1"
       d="m 28.150551,29.551691 0.63706,0.267158"
       id="path17797" />
    <path
       style="fill:none;stroke:#1e2530;stroke-width:0.197285;stroke-linecap:round;stroke-linejoin:miter;stroke-miterlimit:4;stroke-dasharray:none;stroke-opacity:1"
       d="m 28.921191,29.16123 1.40771,0.822023"
       id="path17865" />
    <path
       style="fill:none;stroke:#1e2530;stroke-width:0.197285;stroke-linecap:round;stroke-linejoin:round;stroke-miterlimit:4;stroke-dasharray:none;stroke-opacity:1"
       d="m 29.599361,28.914624 0.63707,0.400735"
       id="path17900" />
    <path
       style="fill:none;stroke:#1e2530;stroke-width:0.197285;stroke-linecap:round;stroke-linejoin:miter;stroke-miterlimit:4;stroke-dasharray:none;stroke-opacity:1"
       d="m 30.030921,28.79132 1.57212,0.883675"
       id="path17968" />
    <path
       style="fill:none;stroke:#1e2530;stroke-width:0.197285;stroke-linecap:round;stroke-linejoin:round;stroke-miterlimit:4;stroke-dasharray:none;stroke-opacity:1"
       d="m 32.610021,29.695545 -1.98615,-1.071253"
       id="path18003" />
    <path
       style="fill:none;stroke:#1e2530;stroke-width:0.197285;stroke-linecap:round;stroke-linejoin:round;stroke-miterlimit:4;stroke-dasharray:none;stroke-opacity:1"
       d="m 31.437631,28.391789 3.06304,1.827795"
       id="path18071" />
    <path
       style="fill:none;stroke:#1e2530;stroke-width:0.197285;stroke-linecap:round;stroke-linejoin:miter;stroke-miterlimit:4;stroke-dasharray:none;stroke-opacity:1"
       d="m 32.301751,28.26728 1.15084,0.69872"
       id="path18139" />
    <path
       style="fill:none;stroke:#1e2530;stroke-width:0.197285;stroke-linecap:round;stroke-linejoin:miter;stroke-miterlimit:4;stroke-dasharray:none;stroke-opacity:1"
       d="m 33.205981,28.102876 1.56184,0.842573"
       id="path18174" />
    <path
       style="fill:none;stroke:#1e2530;stroke-width:0.197285;stroke-linecap:round;stroke-linejoin:miter;stroke-miterlimit:4;stroke-dasharray:none;stroke-opacity:1"
       d="m 34.377361,28.164528 0.69872,0.452112"
       id="path18209" />
    <path
       style="fill:none;stroke:#1e2530;stroke-width:0.197285;stroke-linecap:round;stroke-linejoin:miter;stroke-miterlimit:4;stroke-dasharray:none;stroke-opacity:1"
       d="m 34.932231,27.938472 1.54129,0.883674"
       id="path18244" />
    <path
       style="fill:none;stroke:#1e2530;stroke-width:0.197285;stroke-linecap:round;stroke-linejoin:round;stroke-miterlimit:4;stroke-dasharray:none;stroke-opacity:1"
       d="m 35.815901,27.89737 0.94533,0.616517"
       id="path18279" />
    <path
       style="fill:none;stroke:#1e2530;stroke-width:0.197285;stroke-linecap:round;stroke-linejoin:miter;stroke-miterlimit:4;stroke-dasharray:none;stroke-opacity:1"
       d="m 36.576281,27.87682 0.78092,0.595966"
       id="path18347" />
    <path
       style="fill:none;stroke:#1e2530;stroke-width:0.526094;stroke-linecap:round;stroke-linejoin:miter;stroke-miterlimit:4;stroke-dasharray:none;stroke-opacity:1"
       d="m 47.225791,33.193416 c 0,0 -2.5602,-0.215258 -6.30131,-0.508297 -3.95904,-0.310109 -8.79245,-0.574395 -13.30936,-0.595279 -0.28188,-0.0013 -0.2011,0.316265 -0.34868,0.609399 -0.25005,0.496685 -1.08416,0.872683 -1.59224,0.95229 -0.5552,0.08699 -1.14996,0.07325 -1.7057,-0.01028 -0.35826,-0.05385 -0.73009,-0.11413 -1.04808,-0.287708 -0.31509,-0.171988 -0.57009,-0.444821 -0.80147,-0.71927 -0.16171,-0.191806 -0.14997,-0.644321 -0.40074,-0.637064 -2.08216,0.06026 -5.78884,-0.08124 -8.69288,-0.02055 -1.27329,0.02661 -3.21772,0.181129 -4.80884,0.380186 -2.0562697,0.257251 -6.1446091,0.945326 -6.1446091,0.945326"
       id="path18708"
       sodipodi:nodetypes="cssssssssssc" />
    <path
       style="fill:none;stroke:#1e2530;stroke-width:0.0657618;stroke-linecap:round;stroke-linejoin:miter;stroke-miterlimit:4;stroke-dasharray:none;stroke-opacity:1"
       d="m 4.2617513,14.514789 0.33566,0.268526"
       id="path21495" />
    <path
       style="fill:none;stroke:#1e2530;stroke-width:0.0657618;stroke-linecap:butt;stroke-linejoin:miter;stroke-miterlimit:4;stroke-dasharray:none;stroke-opacity:1"
       d="M 4.4871213,15.003888 3.8733516,14.53397"
       id="path21587" />
    <path
       style="fill:none;stroke:#1e2530;stroke-width:0.0657618;stroke-linecap:round;stroke-linejoin:miter;stroke-miterlimit:4;stroke-dasharray:none;stroke-opacity:1"
       d="m 3.5808516,14.649052 0.7432297,0.51787"
       id="path21641" />
    <path
       style="fill:none;stroke:#1e2530;stroke-width:0.0657618;stroke-linecap:round;stroke-linejoin:miter;stroke-miterlimit:4;stroke-dasharray:none;stroke-opacity:1"
       d="m 3.5089216,14.831265 0.6808997,0.53705"
       id="path21676" />
    <path
       style="fill:none;stroke:#1e2530;stroke-width:0.0657618;stroke-linecap:round;stroke-linejoin:miter;stroke-miterlimit:4;stroke-dasharray:none;stroke-opacity:1"
       d="M 4.1610613,15.569709 3.5712616,15.147741"
       id="path21711" />
    <path
       style="fill:none;stroke:#1e2530;stroke-width:0.0657618;stroke-linecap:round;stroke-linejoin:miter;stroke-miterlimit:4;stroke-dasharray:none;stroke-opacity:1"
       d="M 4.1658513,15.799872 3.5281016,15.397086"
       id="path21746" />
    <path
       style="fill:none;stroke:#1e2530;stroke-width:0.1;stroke-linecap:round;stroke-linejoin:miter;stroke-miterlimit:4;stroke-dasharray:none;stroke-opacity:1"
       d="m 3.5142716,15.644698 0.6187097,0.402163"
       id="path133" />
    <path
       style="fill:none;stroke:#1e2530;stroke-width:0.1;stroke-linecap:round;stroke-linejoin:miter;stroke-miterlimit:4;stroke-dasharray:none;stroke-opacity:1"
       d="M 4.1433013,16.253099 3.4524016,15.861248"
       id="path983" />
    <path
       style="fill:none;stroke:#1e2530;stroke-width:0.1;stroke-linecap:butt;stroke-linejoin:miter;stroke-miterlimit:4;stroke-dasharray:none;stroke-opacity:1"
       d="M 4.1302713,16.453661 3.4818316,16.031786"
       id="path1018" />
    <path
       style="fill:none;stroke:#1e2530;stroke-width:0.1;stroke-linecap:round;stroke-linejoin:round;stroke-miterlimit:4;stroke-dasharray:none;stroke-opacity:1"
       d="M 4.0912113,16.672411 3.4584016,16.219286"
       id="path1133" />
    <path
       style="fill:none;stroke:#1e2530;stroke-width:0.1;stroke-linecap:round;stroke-linejoin:round;stroke-miterlimit:4;stroke-dasharray:none;stroke-opacity:1"
       d="M 4.0834013,16.926317 3.4584016,16.469286"
       id="path1201" />
    <path
       style="fill:none;stroke:#1e2530;stroke-width:0.1;stroke-linecap:round;stroke-linejoin:miter;stroke-miterlimit:4;stroke-dasharray:none;stroke-opacity:1"
       d="M 4.0326213,17.117723 3.4037116,16.71538"
       id="path1269" />
    <path
       style="fill:none;stroke:#1e2530;stroke-width:0.1;stroke-linecap:round;stroke-linejoin:miter;stroke-miterlimit:4;stroke-dasharray:none;stroke-opacity:1"
       d="M 4.0560513,17.406786 3.3021516,16.949755"
       id="path1304" />
    <path
       style="fill:none;stroke:#1e2530;stroke-width:0.1;stroke-linecap:round;stroke-linejoin:round;stroke-miterlimit:4;stroke-dasharray:none;stroke-opacity:1"
       d="M 4.0365213,17.648973 3.3724616,17.21538"
       id="path1339" />
    <path
       style="fill:none;stroke:#1e2530;stroke-width:0.1;stroke-linecap:butt;stroke-linejoin:miter;stroke-miterlimit:4;stroke-dasharray:none;stroke-opacity:1"
       d="M 3.9779313,17.852098 3.3568316,17.445848"
       id="path1407" />
    <path
       style="fill:none;stroke:#1e2530;stroke-width:0.1;stroke-linecap:round;stroke-linejoin:miter;stroke-miterlimit:4;stroke-dasharray:none;stroke-opacity:1"
       d="M 3.9544913,18.05913 3.3334016,17.691942"
       id="path1409" />
    <path
       style="fill:none;stroke:#1e2530;stroke-width:0.1;stroke-linecap:butt;stroke-linejoin:miter;stroke-miterlimit:4;stroke-dasharray:none;stroke-opacity:1"
       d="M 3.9427713,18.305223 3.2982416,17.93413"
       id="path1444" />
    <path
       style="fill:none;stroke:#1e2530;stroke-width:0.1;stroke-linecap:round;stroke-linejoin:miter;stroke-miterlimit:4;stroke-dasharray:none;stroke-opacity:1"
       d="M 3.9310513,18.59038 3.3177716,18.254442"
       id="path1446" />
    <path
       style="fill:none;stroke:#1e2530;stroke-width:0.1;stroke-linecap:round;stroke-linejoin:miter;stroke-miterlimit:4;stroke-dasharray:none;stroke-opacity:1"
       d="M 3.9544913,18.87163 3.2357416,18.461473"
       id="path1481" />
    <path
       style="fill:none;stroke:#1e2530;stroke-width:0.1;stroke-linecap:round;stroke-linejoin:miter;stroke-miterlimit:4;stroke-dasharray:none;stroke-opacity:1"
       d="M 3.9349613,19.199755 3.2435516,18.758348"
       id="path1516" />
    <path
       style="fill:none;stroke:#1e2530;stroke-width:0.102739;stroke-linecap:round;stroke-linejoin:miter;stroke-miterlimit:4;stroke-dasharray:none;stroke-opacity:1"
       d="m 3.8713516,19.468348 -0.66223,-0.490312"
       id="path1551" />
    <path
       style="fill:none;stroke:#1e2530;stroke-width:0.1;stroke-linecap:butt;stroke-linejoin:miter;stroke-miterlimit:4;stroke-dasharray:none;stroke-opacity:1"
       d="m 3.8724616,19.758348 -0.69141,-0.46875"
       id="path1553" />
    <path
       style="fill:none;stroke:#1e2530;stroke-width:0.0993622;stroke-linecap:round;stroke-linejoin:miter;stroke-miterlimit:4;stroke-dasharray:none;stroke-opacity:1"
       d="m 3.8337216,19.955435 -0.62927,-0.406218"
       id="path1555" />
    <path
       style="fill:none;stroke:#1e2530;stroke-width:0.1;stroke-linecap:round;stroke-linejoin:miter;stroke-miterlimit:4;stroke-dasharray:none;stroke-opacity:1"
       d="m 3.8160116,20.139471 -0.69606,-0.436417"
       id="path1721" />
    <path
       style="fill:none;stroke:#1e2530;stroke-width:0.1;stroke-linecap:round;stroke-linejoin:miter;stroke-miterlimit:4;stroke-dasharray:none;stroke-opacity:1"
       d="m 3.7828616,20.388063 -0.63529,-0.41432"
       id="path1756" />
    <path
       style="fill:none;stroke:#1e2530;stroke-width:0.1;stroke-linecap:round;stroke-linejoin:miter;stroke-miterlimit:4;stroke-dasharray:none;stroke-opacity:1"
       d="m 3.8215316,20.664277 -0.72368,-0.497185"
       id="path1791" />
    <path
       style="fill:none;stroke:#1e2530;stroke-width:0.1;stroke-linecap:round;stroke-linejoin:miter;stroke-miterlimit:4;stroke-dasharray:none;stroke-opacity:1"
       d="M 3.7552416,20.857626 3.0591816,20.37149"
       id="path1826" />
    <path
       style="fill:none;stroke:#1e2530;stroke-width:0.1;stroke-linecap:round;stroke-linejoin:miter;stroke-miterlimit:4;stroke-dasharray:none;stroke-opacity:1"
       d="m 3.7883816,21.150413 -0.76235,-0.486136"
       id="path1861" />
    <path
       style="fill:none;stroke:#1e2530;stroke-width:0.1;stroke-linecap:butt;stroke-linejoin:miter;stroke-miterlimit:4;stroke-dasharray:none;stroke-opacity:1"
       d="m 3.7386716,21.404529 -0.72368,-0.41432"
       id="path1896" />
    <path
       style="fill:none;stroke:#1e2530;stroke-width:0.1;stroke-linecap:round;stroke-linejoin:round;stroke-miterlimit:4;stroke-dasharray:none;stroke-opacity:1"
       d="m 3.8215316,21.675219 -0.80102,-0.513758 v 0.27069 l 0.7734,0.430893 -0.0276,0.309359 -0.78997,-0.569 -0.0111,0.309359 0.7513,0.497185 -0.0166,0.270689 -0.7734,-0.45299 0.0111,0.215446 0.7513,0.464039 -0.0331,0.287262 -0.76787,-0.458514 -0.011,0.220971 0.74025,0.486136 -0.0221,0.248592 -0.80101,-0.541379 0.0166,0.254117 0.78444,0.53033 -0.0166,0.265165 -0.80654,-0.513757 v 0.287262 l 0.78997,0.441941 -0.0276,0.248593 -0.7734,-0.469563 -0.0166,0.287262 0.7513,0.464038 0.011,0.243068 -0.78445,-0.502708 -0.0166,0.281738 0.78444,0.447466 -0.006,0.348029 -0.81759,-0.491661 -0.0166,0.265166 0.82312,0.41432 -0.0608,0.270689 -0.78997,-0.430893 -0.0276,0.298311 0.7955,0.386699 -0.0111,0.259641 -0.81759,-0.397748 v 0.149155 l 0.77339,0.508233 0.006,0.237544 -0.80655,-0.458515 -0.0166,0.259641 0.81759,0.541379 -0.005,0.254116 -0.83417,-0.486136 -0.011,0.243068 0.84521,0.574525 -0.0276,0.243068 -0.88389,-0.546903 0.0773,0.348029 0.78445,0.436417 -0.0608,0.364602 -0.81759,-0.508233 -0.006,0.309359 0.81759,0.447466 -0.0221,0.243068 -0.85073,-0.419844 -0.0497,0.353553 0.86731,0.464039 -0.0276,0.336981 -0.88389,-0.491661 0.006,0.281738 0.90598,0.524806 -0.0497,0.270689 -0.9170297,-0.580048 0.0387,0.419844 0.82312,0.436418 -0.0221,0.309359 -0.7955,-0.458514 -0.0552,0.29831 2.2649494,1.358971 -0.3867,0.09391 -1.8727194,-1.182194 -0.0221,0.331456 1.5302197,0.900456 -0.37012,0.09391 -1.2098197,-0.751301 -0.0111,0.364602 0.8783597,0.419844 -0.3646,0.110486 -0.5413797,-0.386699"
       id="path1931" />
    <path
       style="fill:#1e2530;fill-opacity:1;stroke:#1e2530;stroke-width:0.7;stroke-linecap:butt;stroke-linejoin:miter;stroke-miterlimit:4;stroke-dasharray:none;stroke-opacity:1"
       d="m 24.588951,30.265191 c 0,0 0.56507,-0.07369 0.8382,-0.01465 0.27895,0.0603 0.574,0.137102 0.8203,0.281249 0.20236,0.118427 0.37941,0.310289 0.52735,0.492188 0.0762,0.09365 0.14209,0.183444 0.14453,0.332032 0.002,0.148588 -0.0987,0.344462 -0.19531,0.492187 -0.1033,0.15797 -0.24559,0.291608 -0.39844,0.402344 -0.14618,0.105906 -0.48437,0.242187 -0.48437,0.242187 -0.31651,0.174247 -0.51693,0.111975 -0.74219,0.160156 0,0 -0.69814,0.03443 -1.03906,-0.02735 -0.23176,-0.042 -0.47063,-0.138044 -0.66797,-0.230469 -0.33723,-0.157949 -0.67123,-0.399089 -0.8487,-0.726469 -0.0845,-0.155892 -0.0647,-0.350173 -0.0693,-0.527437 -0.005,-0.181496 0.0136,-0.406054 0.043,-0.542969 0.0921,-0.429623 0.85214,-0.22257 1.28724,-0.2838 0.25953,-0.03652 0.78472,-0.0492 0.78472,-0.0492"
       id="path2618"
       sodipodi:nodetypes="cssszssccsssassc" />
    <path
       style="fill:none;stroke:#1e2530;stroke-width:0.5;stroke-linecap:round;stroke-linejoin:round;stroke-miterlimit:4;stroke-dasharray:none;stroke-opacity:1"
       d="m 24.341211,14.109911 c -0.38891,0.0024 -0.77934,0.06035 -1.15625,0.15625 -0.45371,0.115442 -0.89637,0.285475 -1.3125,0.5 -0.40059,0.206517 -0.77917,0.46099 -1.125,0.75 -0.2996,0.250379 -0.58239,0.528309 -0.8125,0.84375 -0.27192,0.37276 -0.49231,0.787457 -0.65625,1.21875 -0.14454,0.38024 -0.24037,0.782775 -0.28125,1.1875 -0.067,0.663616 -0.0233,1.338552 0.0625,2 0.0715,0.551282 0.17098,1.107891 0.375,1.625 0.16787,0.425467 0.40145,0.830597 0.6875,1.1875 0.33655,0.419924 0.72474,0.81905 1.1875,1.09375 0.5297,0.314436 1.15033,0.452892 1.75,0.59375 0.37862,0.08893 0.76739,0.163331 1.15625,0.15625 0.91947,-0.01674 1.87792,-0.09631 2.71875,-0.46875 0.77351,-0.342621 1.4512,-0.918661 2,-1.5625 0.44762,-0.525134 0.79017,-1.155156 1,-1.8125 0.22317,-0.699158 0.29811,-1.455165 0.25,-2.1875 -0.0507,-0.77142 -0.20642,-1.563805 -0.5625,-2.25 -0.41841,-0.806306 -1.04989,-1.523694 -1.78125,-2.0625 -0.50326,-0.370761 -1.11578,-0.585183 -1.71875,-0.75 -0.57704,-0.157731 -1.18305,-0.222377 -1.78125,-0.21875 z"
       id="path8889"
       sodipodi:nodetypes="aaaaaaaaaaaaaaaaaaaaa" />
    <path
       style="fill:none;stroke:#1e2530;stroke-width:0.5;stroke-linecap:round;stroke-linejoin:round;stroke-miterlimit:4;stroke-dasharray:none;stroke-opacity:1"
       d="m 19.497461,17.328661 10,-0.0625 c 0.24996,0.552104 0.47713,1.115604 0.5625,1.75 l 0.125,0.75 -11.1875,-0.15625 c 0.11756,0.864583 0.007,1.729167 0.5,2.59375 l 10.09375,0.09375"
       id="path9902"
       sodipodi:nodetypes="ccccccc" />
    <g
       id="g23086"
       style="stroke:#1e2530;stroke-opacity:1"
       transform="translate(-2)">
      <path
         style="fill:none;stroke:#1e2530;stroke-width:0.197285;stroke-linecap:butt;stroke-linejoin:miter;stroke-miterlimit:4;stroke-dasharray:none;stroke-opacity:1"
         d="m 10.744081,7.5907426 c 0,0 3.19214,-0.757684 4.81564,-0.732815 1.7383,0.02663 3.51835,0.28956 5.12971,0.942191 1.28278,0.519554 2.42177,1.381963 3.45469,2.3031334 0.88702,0.79105 2.30314,2.721883 2.30314,2.721883 0,0 2.05219,-1.963888 3.29766,-2.8265714 1.00362,-0.695164 2.26668,-1.436355 3.40236,-1.884382 1.39432,-0.550061 2.90182,-0.835098 4.39689,-0.942191 1.53505,-0.109956 4.60626,0.314064 4.60626,0.314064 l 1.4133,16.8547454 c 0,0 -1.86711,-0.2417 -2.87892,-0.314063 -0.94236,-0.0674 -1.72544,-0.19243 -2.66955,-0.157032 -1.41046,0.05288 -2.84678,0.186952 -4.18751,0.628127 -1.2752,0.419614 -2.73133,1.260422 -3.81211,2.056745 -1.31505,0.968922 -2.09926,1.945267 -2.61484,2.656612 -0.51557,0.711347 -0.59595,1.1762 -0.83646,1.085127 -0.24051,-0.09107 -0.48689,-0.50167 -1.04759,-1.144975 -0.56069,-0.643308 -1.43569,-1.519325 -2.93342,-2.541244 -1.17151,-0.716816 -2.87759,-1.469341 -4.19704,-1.850545 -1.91825,-0.554206 -3.97249,-0.612477 -5.96721,-0.523439 -0.99156,0.04426 -3.1778697,0.605642 -3.1778697,0.605642 z"
         id="path379"
         sodipodi:nodetypes="cssscsssccssssssscsscc" />
      <path
         style="fill:none;stroke:#1e2530;stroke-width:0.197285;stroke-linecap:butt;stroke-linejoin:miter;stroke-miterlimit:4;stroke-dasharray:none;stroke-opacity:1"
         d="m 25.804231,30.314392 -2.1312,-0.163415 c 0,0 -2.8921,-0.389024 -4.34455,-0.523439 -2.42001,-0.223956 -4.84565,-0.441106 -7.27581,-0.471095 -1.30955,-0.01616 -2.6170497,0.108292 -3.9257897,0.157032 -0.50594,0.01884 -1.01351,0.0094 -1.51797,0.05235 -0.38601,0.03289 -1.1515697,0.157032 -1.1515697,0.157032 0,0 0.29039,-1.424376 0.36641,-2.146102 0.0896,-0.850955 0.0666,-1.710035 0.1046797,-2.564852 0.0644,-1.44843 0.0897,-2.899631 0.20938,-4.344547 0.0986,-1.190569 0.29675,-2.370989 0.41875,-3.559387 0.10195,-0.993135 -0.0765,-2.044289 0.26172,-2.983604 0.20824,-0.578306 1.04688,-1.517974 1.04688,-1.517974"
         id="path4776"
         sodipodi:nodetypes="ccsssscsssssc" />
      <path
         style="fill:none;stroke:#1e2530;stroke-width:0.197285;stroke-linecap:round;stroke-linejoin:round;stroke-miterlimit:4;stroke-dasharray:none;stroke-opacity:1"
         d="m 28.195841,30.552766 c 0,0 1.43232,-0.858156 2.1332,-1.163693 0.82973,-0.361711 1.72432,-0.652349 2.57238,-0.869799 0.84807,-0.217451 1.7141,-0.335056 2.49837,-0.444154 0.78427,-0.109098 1.46484,-0.198001 2.20226,-0.222076 1.40043,-0.04573 2.80515,0.02522 4.20094,0.14805 1.09848,0.09666 2.1856,0.295935 3.27563,0.46266 0.52531,0.08035 1.57305,0.259089 1.57305,0.259089 l -1.49903,-17.247941 c 0,-0.130373 -0.6443,-0.171066 -0.8698,-0.01851"
         id="path9822"
         sodipodi:nodetypes="cszzsssccc" />
      <path
         style="fill:none;stroke:#1e2530;stroke-width:0.1;stroke-linecap:round;stroke-linejoin:round;stroke-miterlimit:4;stroke-dasharray:none;stroke-opacity:1"
         d="m 6.4462813,32.602228 0.36962,-0.03315 -1.4307897,-0.972271 0.46957,-0.07182 1.3313497,0.988845 0.20439,-0.06077 -1.24296,-0.955699 0.4309,-0.04419 1.14352,0.933601 0.33698,-0.02762 -1.17667,-0.917029 0.45299,-0.04419 1.14905,0.955699 0.33698,-0.03867 -1.12695,-0.950175 0.45851,-0.0221 1.10486,0.939126 0.26516,-0.09391 -1.06066,-0.872835 0.49719,-0.04972 0.93912,0.872835 0.3314597,-0.06077 -0.9998897,-0.823116 0.3646,-0.07182 1.1987597,1.021991 0.23755,-0.182301 -1.02752,-0.80102 0.44195,-0.02762 0.91702,0.828641 0.35356,-0.08287 -0.99437,-0.773398 0.46404,-0.03867 0.91703,0.839689 0.3425,-0.127058 -0.86731,-0.76235 0.41985,-0.01657 0.84521,0.789971 0.28174,-0.06077 -0.7955,-0.762349 0.39775,-0.0221 0.80654,0.801019 0.32594,-0.104961 -0.82865,-0.635291 h 0.53586 l 0.76235,0.795495 0.26516,-0.143631 -0.81206,-0.712631 0.48613,0.07182 0.54963,0.559726 0.39844,-0.01563 -0.56641,-0.496094 0.36719,-0.03516 0.51172,0.53125 0.38672,0.01563 -0.63672,-0.539063 0.48437,-0.01172 0.55079,0.554688 h 0.35546 l -0.625,-0.5625 0.59766,-0.04297 0.54297,0.589844 0.41797,0.01563 -0.67969,-0.558594 0.39453,-0.01172 0.64453,0.585938 0.44141,0.0039 -0.61719,-0.601562 0.45703,-0.01953 0.64453,0.605469 0.39844,-0.01563 -0.73828,-0.570312 0.53906,-0.03125 0.71485,0.632812 0.41797,-0.0039 -0.7461,-0.667969 0.51953,-0.01953 0.6836,0.738281 0.37109,0.0039 -0.73047,-0.730468 0.42578,-0.01953 0.76953,0.742188 0.30469,-0.02734 -0.8125,-0.765625 h 0.41797 l 0.78125,0.738281 0.35938,0.0039 -0.85938,-0.757813 0.44531,-0.04297 0.8711,0.933594 0.38672,-0.105469 -1.04297,-0.835937 0.47656,-0.07813 0.91016,0.933594 0.32031,0.234375 1.30577,1.220525 0.7955,0.27069 -3.02178,-2.695845 0.47509,-0.05524 0.91703,0.994369 0.0387,-0.303835 -0.72921,-0.729204 0.27069,-0.03867 0.41985,0.486136"
         id="path1999" />
      <path
         style="fill:none;stroke:#1e2530;stroke-width:0.1;stroke-linecap:round;stroke-linejoin:round;stroke-miterlimit:4;stroke-dasharray:none;stroke-opacity:1"
         d="m 25.255271,32.258348 1.35938,1.21875 0.3125,-0.04687 -1.02344,-0.960937 0.59375,0.117187 0.86719,0.859375 0.32031,-0.15625 -0.95313,-0.734375 0.40625,-0.05469 0.73438,0.757812 0.32031,-0.140625 -0.77344,-0.671875 0.30469,-0.109375 0.71094,0.640625 0.20312,-0.117187 -0.75781,-0.585938 0.25,-0.148437 0.74219,0.617187 0.15625,-0.148437 -0.82031,-0.648438 0.21875,-0.07813 0.77343,0.546875 0.0234,-0.320312 -0.73437,-0.515625 0.1875,-0.09375 0.61718,0.445312 0.10938,-0.117187 -0.57813,-0.445313 0.0249,-0.258515 0.24853,0.03977 0.69531,0.65625 0.28125,-0.05469 -0.75,-0.625 0.39063,-0.02344 0.69531,0.648438 0.36719,-0.01563 -0.75781,-0.65625 0.45312,-0.05469 0.70313,0.71875 0.32031,0.02344 -0.67969,-0.65625 0.4375,-0.0078 0.66406,0.609375 0.41407,0.07031 -0.6875,-0.695313 0.47656,-0.02344 0.64844,0.734375 0.38281,-0.02344 -0.78906,-0.757812 0.52343,0.02344 0.64063,0.765625 0.39844,0.02344 -0.71875,-0.726563 0.35937,-0.03906 0.71875,0.78125 h 0.44531 l -0.875,-0.789063 0.5,-0.01563 0.76563,0.859375 0.39062,-0.01563 -0.88281,-0.859375 0.54688,0.01563 0.67187,0.84375 0.375,0.03125 -0.83594,-0.921875 0.39063,-0.03125 0.85937,1 0.36719,-0.02344 -0.94531,-0.921875 0.53906,0.01563 0.83594,1.023437 0.38281,-0.07031 -1.01562,-0.984375 0.48437,0.0078 0.875,1.007813 h 0.50781 l -1.03906,-0.992188 0.41406,-0.03125 1.00782,1.101563 0.50781,0.07031 -1.20313,-1.140625 0.46875,0.02344 0.98438,1.085937 0.46875,0.01563 -1.17187,-1.101563 0.42968,-0.06251 1.21094,1.242188 h 0.39062 l -1.35937,-1.234375 0.63281,0.0078 1.11719,1.234375 0.55469,0.06249 -1.30469,-1.296875 0.48437,0.01563 1.39849,1.375032"
         id="path5259"
         sodipodi:nodetypes="ccccccccccccccccccccccccccccccccccccccccccccccccccccccccccccccccccccccccccccccccccccccccccccccc" />
      <path
         style="fill:none;stroke:#1e2530;stroke-width:0.1;stroke-linecap:round;stroke-linejoin:round;stroke-miterlimit:4;stroke-dasharray:none;stroke-opacity:1"
         d="m 43.145901,32.336473 -1.42969,-1.257812 0.53125,0.03125 1.35156,1.257812 0.375,0.03125 -1.39062,-1.320312 0.42187,0.03125 1.57031,1.382812 0.3125,-0.02344 -1.39843,-1.34375 0.36718,0.0078 1.54688,1.523438 0.55469,-0.04687 -1.69532,-1.46875 0.61719,0.02344 1.64844,1.539063 0.375,-0.04687 -1.61719,-1.46875 0.42188,0.0078 1.60937,1.609375 0.44531,-0.0625 -1.64062,-1.484375 0.41406,0.0078 1.58594,1.484375 0.32031,-0.01563 -1.60156,-1.4375 0.48437,0.03125 1.55469,1.492187 0.39604,0.02809 -0.0406,-0.137469 -1.62109,-1.378906 0.46875,0.02344 1.13281,1.125 -0.043,-0.378907 -0.84375,-0.730468 -0.0391,-0.421875 0.80859,0.664062 -0.0469,-0.445312 -0.86328,-0.632813 -0.008,-0.378906 0.82422,0.523437 -0.0195,-0.308593 -0.89844,-0.59375 -0.01144,-0.386685 0.88282,0.726562 -0.0547,-0.300781 -0.86328,-0.707031 -0.0417,-0.296205 0.85938,0.667968 -0.0401,-0.383482 -0.88304,-0.679687 -0.005,-0.371094 0.91529,0.6875 -0.0195,-0.324219 -0.92187,-0.695312 -0.0352,-0.347657 0.85157,0.699219 -0.0273,-0.464844 -0.98828,-0.675781 0.0586,-0.40625 0.92579,0.835938 -0.043,-0.335938 -1.00782,-0.847656 0.0547,-0.34375 0.90235,0.644531 -0.043,-0.347656 -0.98438,-0.777344 -0.0234,-0.496094 0.94532,0.871094 -0.0508,-0.453125 -0.9336,-0.746094 -0.0664,-0.382812 0.96484,0.789062 -0.0352,-0.324218 -0.97656,-0.820313 0.0117,-0.417969 0.89453,0.757813 -0.0234,-0.492188 -0.98047,-0.738281 -0.0156,-0.292969 0.92187,0.757813 -0.0273,-0.316406 -0.90234,-0.746094 -0.043,-0.261719 0.95312,0.707031 -0.0508,-0.476562 -0.97265,-0.75 -0.0352,-0.339844 0.96875,0.792969 -0.0352,-0.453125 -1.00781,-0.652344 -0.0195,-0.425781 1.01562,0.734375 -0.0547,-0.351563 -1.00391,-0.726562 0.004,-0.324219 0.94922,0.761719 -0.0234,-0.363281 -1.00726,-0.677399 0.0151,-0.267914 0.94531,0.667969 -0.0234,-0.287559 -0.94532,-0.743691 -0.043,-0.484375 0.9375,0.796875 -0.0352,-0.449219 -1.03516,-0.765625 0.0312,-0.351562 0.96875,0.804687 -0.0547,-0.449219 -0.97656,-0.710937 -0.0195,-0.351563 0.95313,0.785157 -0.004,-0.339844 -1.01172,-0.847656 -0.027,-0.358983 0.96054,0.88242 c -0.0104,-0.174479 -0.069,-0.02839 -0.0478,-0.424 l -1.00296,-0.91975 -0.0117,-0.308594 1.00782,0.871094 -0.0508,-0.417969 -0.96485,-0.71875 -0.0391,-0.476562 0.98437,0.902344 -0.0234,-0.367188 -0.73047,-0.609375 0.29297,-0.05469 0.375,0.433593"
         id="path7051"
         sodipodi:nodetypes="ccccccccccccccccccccccccccccccccccccccccccccccccccccccccccccccccccccccccccccccccccccccccccccccccccccccccccccccccccccccccccccccccc" />
      <path
         style="fill:none;stroke:#1e2530;stroke-width:0.499997;stroke-linecap:butt;stroke-linejoin:miter;stroke-miterlimit:4;stroke-dasharray:none;stroke-opacity:1"
         d="m 26.559961,14.141161 c 0,0 -1.26645,0.902961 -1.75,1.5 -0.32859,0.405708 -0.56509,0.886759 -0.75,1.375 -0.26491,0.699488 -0.46136,1.440527 -0.5,2.1875 -0.0445,0.859346 0.0906,1.731103 0.3125,2.5625 0.15165,0.568261 0.37098,1.129281 0.6875,1.625 0.48418,0.758308 0.92396,1.858708 1.8125,2 0.49764,0.07913 0.93561,-0.415546 1.3125,-0.75 0.60149,-0.533767 1.10457,-1.205474 1.4375,-1.9375 0.28252,-0.621202 0.37244,-1.320678 0.4375,-2 0.0815,-0.850529 0.11527,-1.726777 -0.0625,-2.5625 -0.16905,-0.79472 -0.46318,-1.590323 -0.9375,-2.25 -0.51714,-0.719227 -2,-1.75 -2,-1.75"
         id="path10027"
         sodipodi:nodetypes="csssssssssssc" />
    </g>
    <ellipse
       style="mix-blend-mode:normal;fill:#1e2530;fill-opacity:1;stroke:none;stroke-width:0.779279;stroke-linecap:round;stroke-linejoin:round;stroke-miterlimit:4;stroke-dasharray:none;stroke-opacity:1;filter:url(#filter6360)"
       id="ellipse32156"
       cx="24.3125"
       cy="38.75"
       rx="21.189123"
       ry="1.0016229" />
  </g>
</svg>
